<?xml version="1.0" encoding="UTF-8" standalone="no"?>
<!-- Created with Inkscape (http://www.inkscape.org/) -->

<svg
   width="64"
   height="64"
   viewBox="0 0 16.933333 16.933333"
   version="1.1"
   id="svg1"
   sodipodi:docname="tsuki-linux.svg"
   inkscape:version="1.3.2 (091e20e, 2023-11-25, custom)"
   xmlns:inkscape="http://www.inkscape.org/namespaces/inkscape"
   xmlns:sodipodi="http://sodipodi.sourceforge.net/DTD/sodipodi-0.dtd"
   xmlns="http://www.w3.org/2000/svg"
   xmlns:svg="http://www.w3.org/2000/svg">
  <sodipodi:namedview
     id="namedview1"
     pagecolor="#ffffff"
     bordercolor="#000000"
     borderopacity="0.25"
     inkscape:showpageshadow="2"
     inkscape:pageopacity="0.0"
     inkscape:pagecheckerboard="0"
     inkscape:deskcolor="#d1d1d1"
     inkscape:document-units="mm"
     inkscape:zoom="4"
     inkscape:cx="8"
     inkscape:cy="11.875"
     inkscape:window-width="1920"
     inkscape:window-height="1009"
     inkscape:window-x="-8"
     inkscape:window-y="-8"
     inkscape:window-maximized="1"
     inkscape:current-layer="layer1"
     showguides="true" />
  <defs
     id="defs1" />
  <g
     inkscape:label="Layer 1"
     inkscape:groupmode="layer"
     id="layer1">
    <circle
       style="fill:#0e0d2a;fill-opacity:1;stroke-width:0.165133"
       id="path1-2-8"
       cx="8.4666662"
       cy="8.4666662"
       r="8.2020836" />
    <path
       id="path1"
       style="fill:#dcc870;fill-opacity:1;stroke-width:0.154479"
       d="M 12.236462 1.7864543 A 7.6729169 7.6729169 0 0 1 13.229167 5.55625 A 7.6729169 7.6729169 0 0 1 5.55625 13.229167 A 7.6729169 7.6729169 0 0 1 1.7988566 12.22406 A 7.6729169 7.6729169 0 0 0 8.4666667 16.139583 A 7.6729169 7.6729169 0 0 0 16.139583 8.4666667 A 7.6729169 7.6729169 0 0 0 12.236462 1.7864543 z " />
    <path
       id="rect12"
       style="fill:#e0e0e0;fill-opacity:1;fill-rule:nonzero;stroke:none;stroke-width:0.437134;stroke-opacity:1"
       d="M 6.276154,4.1084963 5.8897352,4.4948651 7.3965275,6.0014701 5.8897329,7.5068947 6.276154,7.8932669 7.7829463,6.3866592 l 0.00118,0.00118 0.3852403,-0.3863676 h 0.00118 v -0.00118 l -0.3864188,-0.3863723 -0.00118,0.00118 z" />
    <rect
       style="fill:#e0e0e0;fill-opacity:1;fill-rule:nonzero;stroke:none;stroke-width:0.437134;stroke-opacity:1"
       id="rect12-7-8"
       width="0.54638547"
       height="2.6776247"
       x="-7.8855839"
       y="8.9908733"
       transform="rotate(-90)" />
  </g>
</svg>
